# SSTK version 0.8.0
# 24
mtllib original-24.mtl
o SSup1/SSup/mesh17/mesh17-geometry#mesh17-geometry
v -0.167964 0.666242 0.455107
v -0.191016 -0.532479 0.455107
v -0.167964 -0.532479 0.455107
v -0.191016 0.666242 0.455107
v -0.191016 -0.532479 0.374423
v -0.167964 -0.532479 0.374423
v -0.191016 0.666242 0.374423
v -0.167964 0.666242 0.374423
vt 0.010417 0.541667
vt 0 0
vt 0.010417 0
vt 0 0.541667
vt 0 0.020833
vt -0.010417 0
vt 0.020833 0
vt -0.020833 0.541667
vt -0.010417 0.020833
vt -0.020833 0
vt 0.020833 0.541667
vt 0.010417 0.020833
vt -0.010417 0.541667
vn 0 0 1
vn 0 -1 0
vn 1 0 0
vn 0 1 0
vn -1 0 0
vn 0 0 -1
usemtl material_0_0
f 1/1/1 2/2/1 3/3/1
f 2/2/1 1/1/1 4/4/1
f 5/5/2 3/6/2 2/2/2
f 6/7/3 1/4/3 3/2/3
f 1/3/4 7/5/4 4/2/4
f 7/8/5 2/2/5 4/4/5
f 3/6/2 5/5/2 6/9/2
f 2/2/5 7/8/5 5/10/5
f 1/4/3 6/7/3 8/11/3
f 7/5/4 1/3/4 8/12/4
f 7/4/6 6/6/6 5/2/6
f 6/6/6 7/4/6 8/13/6
usemtl material_1_0
f 3//6 2//6 1//6
f 4//6 1//6 2//6
f 2//4 3//4 5//4
f 3//5 1//5 6//5
f 4//2 7//2 1//2
f 4//3 2//3 7//3
f 6//4 5//4 3//4
f 5//3 7//3 2//3
f 8//5 6//5 1//5
f 8//2 1//2 7//2
f 5//1 6//1 7//1
f 8//1 7//1 6//1
