# SSTK version 0.8.0
# 37
mtllib original-37.mtl
o Component_3_4/Component_3/mesh19/mesh19-geometry#mesh19-geometry
v -0.167964 0.197511 0.374423
v -0.167964 0.289721 -0.369014
v -0.167964 0.289721 0.374423
v -0.167964 0.197511 -0.369014
v -0.191016 0.289721 0.374423
v -0.191016 0.197511 -0.369014
v -0.191016 0.289721 -0.369014
v -0.191016 0.197511 0.374423
vt 0 0
vt -0.041667 0.429687
vt -0.041667 0
vt 0 0.429687
vt -0.010417 0
vt 0.010417 -0.041667
vt 0 -0.041667
vt 0.010417 0.429687
vt -0.010417 0.429687
vt 0.010417 0
vt -0.010417 -0.041667
vt 0.041667 0
vt 0.041667 0.429687
vn 1 0 0
vn -1 0 0
vn 0 1 0
vn 0 -1 0
vn 0 0 1
vn 0 0 -1
usemtl material_0_0
f 1/1/1 2/2/1 3/3/1
f 2/2/1 1/1/1 4/4/1
f 3/3/2 2/2/2 1/1/2
f 4/4/2 1/1/2 2/2/2
f 2/4/3 5/5/3 3/1/3
f 3/1/4 5/5/4 2/4/4
f 5/6/5 1/1/5 3/7/5
f 3/7/6 1/1/6 5/6/6
f 1/1/4 6/8/4 4/4/4
f 4/4/3 6/8/3 1/1/3
f 6/5/6 2/7/6 4/1/6
f 4/1/5 2/7/5 6/5/5
f 5/5/3 2/4/3 7/9/3
f 7/9/4 2/4/4 5/5/4
f 1/1/5 5/6/5 8/10/5
f 8/10/6 5/6/6 1/1/6
f 6/8/4 1/1/4 8/10/4
f 8/10/3 1/1/3 6/8/3
f 2/7/6 6/5/6 7/11/6
f 7/11/5 6/5/5 2/7/5
f 6/4/2 5/12/2 7/13/2
f 7/13/1 5/12/1 6/4/1
f 5/12/2 6/4/2 8/1/2
f 8/1/1 6/4/1 5/12/1
