# SSTK version 0.8.0
# 43
mtllib original-43.mtl
o DF_31_R1/DF_31_R/mesh22/mesh22-geometry#mesh22-geometry
v 0.272912 0.749807 0.489685
v 0.134598 -0.616044 0.489685
v 0.272912 -0.616044 0.489685
v 0.134598 0.749807 0.489685
v 0.272912 -0.616044 0.455107
v 0.134598 0.749807 0.455107
v 0.134598 -0.616044 0.455107
v 0.272912 0.749807 0.455107
vt -3.976525 -1.333044
vt -3.914025 -0.715857
vt -3.976525 -0.715857
vt -3.914025 -1.333044
vt -3.976525 -0.700232
vt -3.99215 -0.715857
vt -3.914025 -1.348669
vt -3.8984 -1.333044
vt -3.914025 -0.700232
vt -3.99215 -1.333044
vt -3.976525 -1.348669
vt -3.8984 -0.715857
vt -3.976525 -1.965857
vt -3.914025 -1.965857
vn 0 0 1
vn 0 -1 0
vn 1 0 0
vn 0 1 0
vn -1 0 0
vn 0 0 -1
usemtl material_0_0
f 1/1/1 2/2/1 3/3/1
f 2/2/1 1/1/1 4/4/1
f 2/2/2 5/5/2 3/3/2
f 5/6/3 1/1/3 3/3/3
f 1/1/4 6/7/4 4/4/4
f 6/8/5 2/2/5 4/4/5
f 5/5/2 2/2/2 7/9/2
f 1/1/3 5/6/3 8/10/3
f 6/7/4 1/1/4 8/11/4
f 2/2/5 6/8/5 7/12/5
f 6/7/6 5/13/6 7/14/6
f 5/13/6 6/7/6 8/11/6
usemtl material_1_0
f 3//6 2//6 1//6
f 4//6 1//6 2//6
f 3//4 5//4 2//4
f 3//5 1//5 5//5
f 4//2 6//2 1//2
f 4//3 2//3 6//3
f 7//4 2//4 5//4
f 8//5 5//5 1//5
f 8//2 1//2 6//2
f 7//3 6//3 2//3
f 7//1 5//1 6//1
f 8//1 6//1 5//1
