# SSTK version 0.8.0
# 44
mtllib original-44.mtl
o DF_31_B1/DF_31_B/mesh23/mesh23-geometry#mesh23-geometry
v 0.134598 -0.477730 0.455107
v -0.124740 -0.477730 0.478123
v 0.134598 -0.477730 0.478123
v -0.124740 -0.477730 0.455107
v 0.134598 -0.514861 0.484109
v -0.124740 -0.616044 0.455107
v -0.124740 -0.514861 0.484109
v 0.134598 -0.616044 0.455107
v -0.124740 -0.514861 0.486997
v 0.134598 -0.515221 0.488341
v 0.134598 -0.616044 0.489685
v 0.134598 -0.514861 0.486997
v 0.134598 -0.516205 0.489325
v -0.124740 -0.616044 0.489685
v 0.134598 -0.517549 0.489685
v -0.124740 -0.515221 0.488341
v -0.124740 -0.517549 0.489685
v -0.124740 -0.516205 0.489325
vt -3.723633 0.463831
vt -3.637696 0.463831
vt -3.723633 0.480609
vt -3.637696 0.526331
vt -3.637696 0.480609
vt -3.723633 0.526331
vt -3.723633 0.480772
vt -3.723633 0.481217
vt -3.723633 0.481824
vt -3.637696 0.480772
vt -3.637696 0.481824
vt -3.637696 0.481217
vn 0 1 0
vn 0 0.7612999048375177 0.6483999189500155
vn 0 0.1591549383639992 0.987253617665872
vn 1 0 0
vn 0 0 -1
vn -1 0 0
vn 0 0.9914448886106773 0.13052598533534132
vn 0 -1 0
vn 0 0.8660253028382761 0.500000174843842
vn 0 0.5000001748438415 0.8660253028382763
vn 0 0 1
vn 0 0.13052598533534088 0.9914448886106773
vn 0 -0.7612999048375177 -0.6483999189500155
vn 0 -0.1591549383639992 -0.987253617665872
vn 0 -0.9914448886106773 -0.13052598533534132
vn 0 -0.8660253028382761 -0.500000174843842
vn 0 -0.5000001748438415 -0.8660253028382763
vn 0 -0.13052598533534088 -0.9914448886106773
usemtl material_0_0
f 1/1/1 2/2/2 3/1/2
f 2/2/2 1/1/1 4/2/1
f 2/2/2 5/3/3 3/1/2
f 5/3/4 1/1/4 3/1/4
f 1/1/5 6/4/5 4/2/5
f 6/4/6 2/2/6 4/2/6
f 5/3/3 2/2/2 7/5/3
f 1/1/4 5/3/4 8/6/4
f 6/4/5 1/1/5 8/6/5
f 2/2/6 6/4/6 7/5/6
f 9/5/7 5/3/1 7/5/1
f 8/6/4 5/3/4 10/7/4
f 11/6/8 6/4/8 8/6/8
f 7/5/6 6/4/6 9/5/6
f 5/3/1 9/5/7 12/3/7
f 10/7/4 5/3/4 12/3/4
f 8/6/4 10/7/4 13/8/4
f 6/4/8 11/6/8 14/4/8
f 8/6/4 15/9/4 11/6/4
f 9/5/6 6/4/6 16/10/6
f 16/10/9 12/3/7 9/5/7
f 12/3/7 16/10/9 10/7/9
f 16/10/9 13/8/10 10/7/9
f 8/6/4 13/8/4 15/9/4
f 11/6/11 17/11/12 14/4/11
f 17/11/6 6/4/6 14/4/6
f 17/11/12 11/6/11 15/9/12
f 16/10/6 6/4/6 18/12/6
f 13/8/10 16/10/9 18/12/10
f 18/12/10 15/9/12 13/8/10
f 18/12/6 6/4/6 17/11/6
f 15/9/12 18/12/10 17/11/12
usemtl material_1_0
f 3//13 2//13 1//8
f 4//8 1//8 2//13
f 3//13 5//14 2//13
f 3//6 1//6 5//6
f 4//11 6//11 1//11
f 4//4 2//4 6//4
f 7//14 2//13 5//14
f 8//6 5//6 1//6
f 8//11 1//11 6//11
f 7//4 6//4 2//4
f 7//8 5//8 9//15
f 10//6 5//6 8//6
f 8//1 6//1 11//1
f 9//4 6//4 7//4
f 12//15 9//15 5//8
f 12//6 5//6 10//6
f 13//6 10//6 8//6
f 14//1 11//1 6//1
f 11//6 15//6 8//6
f 16//4 6//4 9//4
f 9//15 12//15 16//16
f 10//16 16//16 12//15
f 10//16 13//17 16//16
f 15//6 13//6 8//6
f 14//5 17//18 11//5
f 14//4 6//4 17//4
f 15//18 11//5 17//18
f 18//4 6//4 16//4
f 18//17 16//16 13//17
f 13//17 15//18 18//17
f 17//4 6//4 18//4
f 17//18 18//17 15//18
